name D:\school\WTK\thesis\model\3dpredictsim\Results\Batchsim_tmt_linear_v2\Pog_s1_tmt_aCst_d05_k1000_ig24.mot
datacolumns 128
datarows 4
range 1.57960028 1.61119228
endheader
time	pelvis_tilt	pelvis_list	pelvis_rotation	pelvis_tx	pelvis_ty	pelvis_tz	hip_flexion_l	hip_adduction_l	hip_rotation_l	hip_flexion_r	hip_adduction_r	hip_rotation_r	knee_angle_l	knee_angle_r	ankle_angle_l	ankle_angle_r	subtalar_angle_l	subtalar_angle_r	tmt_angle_l	tmt_angle_r	mtp_angle_l	mtp_angle_r	lumbar_extension	lumbar_bending	lumbar_rotation	arm_flex_l	arm_add_l	arm_rot_l	arm_flex_r	arm_add_r	arm_rot_r	elbow_flex_l	elbow_flex_r	pro_sup_l	pro_sup_r	glut_med1_l/activation	glut_med2_l/activation	glut_med3_l/activation	glut_min1_l/activation	glut_min2_l/activation	glut_min3_l/activation	semimem_l/activation	semiten_l/activation	bifemlh_l/activation	bifemsh_l/activation	sar_l/activation	add_long_l/activation	add_brev_l/activation	add_mag1_l/activation	add_mag2_l/activation	add_mag3_l/activation	tfl_l/activation	pect_l/activation	grac_l/activation	glut_max1_l/activation	glut_max2_l/activation	glut_max3_l/activation	iliacus_l/activation	psoas_l/activation	quad_fem_l/activation	gem_l/activation	peri_l/activation	rect_fem_l/activation	vas_med_l/activation	vas_int_l/activation	vas_lat_l/activation	med_gas_l/activation	lat_gas_l/activation	soleus_l/activation	tib_post_l/activation	flex_dig_l/activation	flex_hal_l/activation	tib_ant_l/activation	per_brev_l/activation	per_long_l/activation	per_tert_l/activation	ext_dig_l/activation	ext_hal_l/activation	ercspn_l/activation	intobl_l/activation	extobl_l/activation	glut_med1_r/activation	glut_med2_r/activation	glut_med3_r/activation	glut_min1_r/activation	glut_min2_r/activation	glut_min3_r/activation	semimem_r/activation	semiten_r/activation	bifemlh_r/activation	bifemsh_r/activation	sar_r/activation	add_long_r/activation	add_brev_r/activation	add_mag1_r/activation	add_mag2_r/activation	add_mag3_r/activation	tfl_r/activation	pect_r/activation	grac_r/activation	glut_max1_r/activation	glut_max2_r/activation	glut_max3_r/activation	iliacus_r/activation	psoas_r/activation	quad_fem_r/activation	gem_r/activation	peri_r/activation	rect_fem_r/activation	vas_med_r/activation	vas_int_r/activation	vas_lat_r/activation	med_gas_r/activation	lat_gas_r/activation	soleus_r/activation	tib_post_r/activation	flex_dig_r/activation	flex_hal_r/activation	tib_ant_r/activation	per_brev_r/activation	per_long_r/activation	per_tert_r/activation	ext_dig_r/activation	ext_hal_r/activation	ercspn_r/activation	intobl_r/activation	extobl_r/activation	
          1.57960028	         -2.71869200	         -0.93763564	         -4.54222165	          1.97450035	          0.87232792	          0.00159012	         26.44636857	         -0.30095333	         -2.32997097	        -17.82171054	          1.36156175	          5.53325188	         -8.02118805	         -5.43279889	          5.89910709	         -7.91294297	          4.07414065	          7.55438375	          0.03539752	          1.07304797	         -0.10509132	         26.13677515	          0.54875354	          3.11956068	          1.58198115	         -8.24371019	        -13.44971100	         15.13173793	          4.17882924	        -13.47418221	         13.23513058	         15.76009673	         22.59142902	         86.51662706	         86.51662706	          0.13571342	          0.05000053	          0.09857355	          0.05000016	          0.05000024	          0.05000200	          0.05877555	          0.05877561	          0.05877555	          0.05000019	          0.05000083	          0.05324469	          0.05877578	          0.18713814	          0.14715352	          0.13271029	          0.05000112	          0.05001063	          0.05877512	          0.06909059	          0.10651351	          0.13325743	          0.05000014	          0.05000013	          0.14005490	          0.05000059	          0.06116979	          0.05000094	          0.09837051	          0.11316758	          0.07793339	          0.05877553	          0.05877551	          0.05877554	          0.05000005	          0.05000078	          0.05680489	          0.48134953	          0.27962993	          0.16539649	          0.28302507	          0.50320520	          0.30069765	          0.05133709	          0.14379384	          0.14483576	          0.29719066	          0.09385184	          0.08121757	          0.26430591	          0.15508121	          0.09460305	          0.05000090	          0.05000010	          0.05000009	          0.05000013	          0.09547115	          0.06771996	          0.05000021	          0.05000027	          0.05000100	          0.05000048	          0.22310302	          0.05000469	          0.05000050	          0.05000534	          0.05000233	          0.05000154	          0.33205982	          0.62193631	          0.05539904	          0.05000174	          0.06909145	          0.25902919	          0.10602746	          0.07896896	          0.05001748	          0.18506960	          0.26392464	          0.21549540	          0.20875702	          0.18726256	          0.25757250	          0.05000001	          0.08911418	          0.14070568	          0.05000011	          0.05000003	          0.05000010	          0.05000000	          0.05000001	          0.05000003	
          1.59013095	         -2.70450905	         -0.99327149	         -4.70301623	          1.99079950	          0.87104333	          0.00146548	         25.93363326	         -0.18031341	         -2.10087380	        -17.67058227	          1.23781559	          5.28974136	         -8.05709648	         -7.46377071	          5.31179413	         -8.54380888	          3.64260428	          8.53292045	          0.05100985	          0.99520296	         -0.08650184	         26.97268502	          0.74707207	          2.94988365	          1.63059847	         -9.32290617	        -13.45136877	         15.08623755	          3.98973699	        -13.50169544	         13.49368956	         15.75337684	         23.36180537	         86.51662706	         86.51662706	          0.11545060	          0.05877493	          0.10461445	          0.05877573	          0.05877014	          0.05000112	          0.05000002	          0.05000009	          0.05000003	          0.05000009	          0.05181465	          0.05000021	          0.05000032	          0.15919804	          0.19356395	          0.14430746	          0.05000013	          0.05000069	          0.05000018	          0.05877551	          0.13558666	          0.17337934	          0.05000027	          0.05000025	          0.21313739	          0.11223455	          0.16805391	          0.06909199	          0.23996003	          0.26190998	          0.19629827	          0.05000000	          0.05000000	          0.05000000	          0.05000003	          0.05000110	          0.05000011	          0.54967642	          0.29456469	          0.17944013	          0.48202208	          0.54804535	          0.28164247	          0.05000002	          0.12232453	          0.12321088	          0.25281829	          0.07983918	          0.06909130	          0.22484349	          0.13192665	          0.08047825	          0.05000097	          0.05000008	          0.05000008	          0.05000015	          0.08121700	          0.14086047	          0.10693476	          0.05278920	          0.05000158	          0.05000027	          0.18979239	          0.11077683	          0.05137073	          0.05000070	          0.05000042	          0.05000046	          0.28248125	          0.52907774	          0.06046853	          0.05877566	          0.05877572	          0.22035453	          0.12670042	          0.15507946	          0.15507706	          0.15743756	          0.22451907	          0.19049245	          0.17758850	          0.15930348	          0.21911554	          0.05000001	          0.07580898	          0.13821104	          0.05000007	          0.05000001	          0.05000008	          0.05000017	          0.06909129	          0.05000004	
          1.60066162	         -2.68399883	         -1.03592099	         -4.84233382	          2.00735672	          0.86968166	          0.00134886	         25.32332668	         -0.08413118	         -1.83621520	        -17.42515260	          1.10419427	          5.03857761	         -8.68316908	         -9.67501787	          4.63341621	         -9.18604950	          3.19148031	          9.50217846	         -0.03378503	          0.88503030	         -0.12966984	         27.45757619	          0.96335306	          2.75297479	          1.67024599	        -10.41871514	        -13.46031076	         15.06131792	          3.73571173	        -13.53502357	         13.72226545	         15.76222789	         24.12946794	         86.51662706	         86.51662706	          0.27921301	          0.05000011	          0.28197594	          0.05000033	          0.05000016	          0.26335195	          0.07062336	          0.05000011	          0.05906754	          0.05000003	          0.05000011	          0.06909111	          0.09546677	          0.13542976	          0.16466416	          0.14677361	          0.05000167	          0.05878409	          0.05000250	          0.05000019	          0.11534373	          0.14749288	          0.05000041	          0.05000025	          0.18131468	          0.09547729	          0.18317416	          0.05877613	          0.20413253	          0.22280522	          0.16698974	          0.05877579	          0.05877586	          0.05877557	          0.05877552	          0.05877558	          0.05877563	          0.46760631	          0.27662314	          0.15264874	          0.41005321	          0.53456494	          0.23959151	          0.05000000	          0.10406072	          0.10481473	          0.26701085	          0.06791871	          0.05877555	          0.19127308	          0.11222920	          0.06846237	          0.05000160	          0.05000030	          0.05000039	          0.05000006	          0.06909091	          0.15791233	          0.21375645	          0.05878043	          0.05800959	          0.09299142	          0.16145524	          0.09423748	          0.05000083	          0.05002620	          0.05817932	          0.05877404	          0.24030506	          0.46811926	          0.05868692	          0.05000068	          0.05000017	          0.18745423	          0.12216837	          0.13192548	          0.13192358	          0.13393115	          0.19099698	          0.16205074	          0.15107346	          0.13551858	          0.18640030	          0.05000002	          0.09381853	          0.14613629	          0.05000007	          0.05000023	          0.05000013	          0.05000000	          0.05877556	          0.06909093	
          1.61119228	         -2.65997391	         -1.06358501	         -4.95707534	          2.02398591	          0.86822425	          0.00122600	         24.60627199	          0.00962574	         -1.55999655	        -17.08463406	          0.96355288	          4.78200420	         -9.38030737	        -12.04902162	          4.13857653	         -9.75450700	          2.72225564	         10.42717004	         -0.01180192	          0.73022337	         -0.15026330	         27.40359952	          1.18045882	          2.53026366	          1.70157696	        -11.49095233	        -13.47732445	         15.08248019	          3.44586644	        -13.57523501	         13.92757623	         15.76409684	         24.88551652	         86.51662706	         86.51662706	          0.29840975	          0.26177317	          0.35472475	          0.15215099	          0.17036161	          0.22403220	          0.06381486	          0.09088839	          0.07026779	          0.08121747	          0.05877492	          0.05877541	          0.08121301	          0.11520936	          0.17169171	          0.17136796	          0.05000012	          0.05000744	          0.08121672	          0.20924089	          0.17921836	          0.17847660	          0.05000009	          0.05000009	          0.15424332	          0.08122209	          0.15582549	          0.05000050	          0.17365430	          0.18953904	          0.14205715	          0.05000021	          0.05000027	          0.05000001	          0.05000000	          0.05000010	          0.05000010	          0.59461892	          0.29838109	          0.15496453	          0.65338929	          0.61915885	          0.39026778	          0.05000004	          0.08852381	          0.08916524	          0.22714456	          0.05777803	          0.05000001	          0.17755717	          0.09547271	          0.05824053	          0.06823285	          0.05000008	          0.05000006	          0.05000009	          0.05877559	          0.18581034	          0.23868914	          0.05000457	          0.05000086	          0.07910751	          0.13734901	          0.08017317	          0.05000020	          0.05000029	          0.05000019	          0.05000020	          0.20442603	          0.42611159	          0.05000001	          0.05000009	          0.05000004	          0.15946615	          0.10392811	          0.11222834	          0.11222688	          0.11393440	          0.16247995	          0.13785556	          0.12851730	          0.11528490	          0.15856965	          0.05320338	          0.09908525	          0.12431728	          0.08997127	          0.15860797	          0.05000657	          0.07690839	          0.05000001	          0.05877523	
